<?xml version="1.0" encoding="UTF-8" standalone="no"?>
<!-- Created with Inkscape (http://www.inkscape.org/) -->

<svg
   version="1.1"
   id="svg1"
   width="5333.3335"
   height="4266.6665"
   viewBox="0 0 5333.3335 4266.6665"
   xmlns="http://www.w3.org/2000/svg"
   xmlns:svg="http://www.w3.org/2000/svg">
  <defs
     id="defs1" />
  <g
     id="layer1"
     style="fill:#3686d3;fill-opacity:1">
    <path
       id="path1"
       style="display:inline;fill:#0e93c7;fill-opacity:1;stroke:none;stroke-opacity:1"
       d="m 2977.1523,277.79883 -299.6992,198.17773 36.9883,46.875 -396.7246,526.55864 c -55.926,74.2285 -55.9811,281.6468 163.7187,447.1621 l -396.6347,526.4609 h 156.0605 L 2581,1571.582 c 220.0914,165.8278 419.8441,107.9961 474.5195,35.4239 l 397.543,-527.6661 55.2891,22.6309 107.7968,-342.74804 -299.6992,198.17968 36.9844,46.87696 -363.8457,482.9316 c -62.8764,83.4555 -191.9484,39.6442 -308.6582,-48.2754 l 577.5644,-766.59761 55.3633,22.66602 107.6973,-342.75977 -299.5977,198.19336 36.9864,46.875 -577.5704,766.6074 c -116.4457,-87.7372 -194.0193,-199.6 -131.1289,-283.084 l 363.8379,-482.91402 55.2735,22.62304 z m 888.1446,1561.62107 -221.3067,64.7344 -35.4257,186.8574 -171.584,-0.01 c -107.5172,-0.01 -214.9443,70.5408 -239.125,197.996 l -35.2246,185.6641 c -18.6982,98.557 63.1397,198.0351 163.8984,197.9961 l 379.8262,-0.1465 z m -879.4649,7.5371 -33.3984,176.0664 h 206.6094 l 33.3984,-176.0664 z m 160.3164,244.0371 -206.6132,0.022 -110.3243,581.6465 h 206.6133 z m -2406.36324,0.014 v 0.01 l -377.42774,0.01 -157.97851,832.8926 218.56054,-64.3261 35.45899,-186.9278 h 171.05273 c 112.55399,0 212.20403,-67.0259 237.0586,-198 L 901.74219,2289 c 16.08677,-84.7711 -61.96352,-197.9948 -161.95703,-197.9922 z m 4197.55464,0 -371.3828,0.01 -110.7168,581.6621 201.6973,-0.024 83.2871,-439.0605 h 86.0801 c 52.4262,0 78.2591,31.3673 73.7012,55.3965 l -72.7735,383.664 202.9961,0.01 L 5103,2288.998 c 15.5999,-82.2466 -62.5296,-197.993 -165.6602,-197.9902 z m -2730.7753,0.01 -346.5879,0.01 c -91.7845,0 -187.555,47.5485 -205.9805,143.0684 l -10.709,55.5156 c -32.7509,169.7841 274.6031,147.724 310.8438,185.0469 26.9243,27.7283 -33.6567,55.3182 -94.3047,55.3438 h -222.6719 l -66.5215,142.6582 h 345.9414 c 102.5453,0 186.9425,-38.573 206.7207,-142.6622 l 10.5098,-55.3125 c 35.5119,-186.8934 -268.0662,-138.3266 -311.3828,-185.1757 -25.9969,-28.1169 39.9645,-55.2954 94.0215,-55.416 l 223.6367,-0.4981 z m 376.7988,0 c -151.1065,0 -299.0852,54.4589 -326.334,197.9785 l -35.25,185.6641 c -14.6253,77.0323 60.0768,198.0019 161.6113,198.0019 h 295.0371 l 66.3106,-142.6738 -245.6797,0.018 c -51.1263,0 -83.0365,-32.533 -78.7148,-55.3418 l 7.0605,-37.2637 h 360.7519 l 28.1426,-148.3984 c 17.3446,-91.4549 -81.829,-197.9844 -232.9355,-197.9844 z m 1608.0058,0 c -176.1752,0.028 -295.3127,56.443 -322.1777,197.9726 l -35.2344,185.6211 c -14.5697,76.7555 63.8877,198.0547 247.0918,198.0547 183.2041,-10e-5 294.4253,-54.3705 321.6543,-198.0254 l 35.1953,-185.6836 c 15.5231,-81.8969 -70.3541,-197.9674 -246.5293,-197.9394 z M 1309.8262,2091.5 c -176.1752,0.028 -296.3981,62.1643 -322.17776,197.9746 l -35.23438,185.6192 c -15.59304,82.146 63.88774,198.0546 247.09184,198.0546 183.2041,0 293.8587,-51.3813 321.6543,-198.0254 l 35.1953,-185.6835 c 14.5486,-76.7554 -70.3541,-197.9677 -246.5293,-197.9395 z m 2271.9629,142.084 -56.502,296.5058 h -85.9726 c -57.5851,0 -79.1394,-33.223 -74.9239,-55.4414 L 3399.6133,2289 c 8.3356,-43.9349 46.9637,-55.4006 96.1992,-55.4062 z m -3040.10746,0.01 85.28906,0.012 c 44.67771,0.01 79.68937,31.9691 75.24805,55.3906 l -35.20703,185.666 c -6.92303,36.5089 -48.07206,55.3263 -96.26758,55.332 l -85.28711,0.01 z m 2013.59956,0 c 51.8666,0 82.4807,35.1186 78.6211,55.4082 l -8.9941,47.2812 -178.4277,-0.01 9.1347,-47.2714 c 7.1733,-37.1211 47.7995,-55.4082 99.666,-55.4082 z m 1609.0547,0 c 49.3322,0 79.5304,34.756 75.6211,55.4062 l -35.1465,185.6484 c -7.9928,42.2193 -40.226,55.3946 -96.6972,55.3946 -56.4712,0 -80.6903,-32.7391 -76.3985,-55.3828 L 4066.9043,2289 c 7.9497,-41.9429 48.0994,-55.4062 97.4316,-55.4062 z m -2881.5429,0.4902 c 48.8322,0 79.0136,37.4866 75.6211,55.4062 l -35.1465,185.6485 c -7.3573,38.8621 -43.8578,54.8476 -96.6973,54.8476 -52.8395,0 -80.3641,-33.9127 -76.3984,-54.8359 l 35.1894,-185.6602 c 6.7889,-35.8186 48.5995,-55.4062 97.4317,-55.4062 z m 260.8672,507.539 -587.91411,780.336 c -118.918,68.852 -179.14133,148.6856 -176.49023,337.4472 181.9527,-49.6759 242.16734,-129.5234 275.58394,-262.7851 l 644.1543,-854.9844 z m 997.289,147.9864 c -29.9245,-0.2916 -59.8231,0.4748 -89.5722,3.2988 -112.3733,10.6675 -225.4026,28.1275 -332.6739,63.2617 -119.0054,38.9775 -224.6201,83.2326 -339.0722,161.752 78.9876,-37.35 180.9325,-65.1667 274.5742,-85.8106 94.3707,-20.8046 190.8426,-34.6116 287.4238,-37.8886 126.1171,-4.2791 253.2411,3.7773 377.8125,23.9218 85.5865,13.8402 166.8415,47.6344 251.5254,66.2149 87.8313,19.2711 175.8264,42.9442 265.6621,46.8515 86.6781,3.7699 175.3527,-0.7956 259.2813,-22.7793 106.9353,-28.0099 202.4371,-63.0901 302.164,-136.6543 -158.7025,49.241 -202.1535,49.453 -305.3965,52.3497 -95.1032,2.6683 -189.623,-17.4126 -283.58,-32.3731 -134.2774,-21.3806 -265.1395,-61.7066 -399.6016,-81.8926 -59.2189,-8.8902 -119.0066,-14.3704 -178.8223,-17.1992 -29.8494,-1.4116 -59.8,-2.7611 -89.7246,-3.0527 z m 1375.1992,170.1484 c -130.0226,22.8494 -236.8619,120.1085 -363.6601,156.8535 -91.247,26.4426 -186.5217,42.5435 -281.502,44.5391 -85.7439,1.8016 -171.2009,-14.2195 -255.5918,-29.4981 -80.4392,-14.5631 -157.4703,-45.1281 -238.0175,-59.082 -141.3282,-24.4835 -284.7961,-47.3103 -428.1602,-42.8574 -127.4451,3.9585 -255.4741,24.7299 -377.5195,61.6465 -136.5316,41.2985 -235.9145,72.8073 -389.7481,176.6758 134.0164,-52.2339 243.8149,-76.2937 369.2793,-98.2989 113.485,-19.9041 229.1524,-32.5959 344.3418,-30.0644 115.7596,2.544 230.863,22.5944 344.3848,45.3867 125.5379,25.2048 244.7896,77.4013 370.6953,100.6992 91.3382,16.9015 184.4188,31.1718 277.2539,28.0137 104.7795,-3.5643 209.2798,-23.8996 310.0547,-52.8106 118.4967,-33.9951 220.0614,-122.8563 342.0508,-140.625 54.981,-8.0084 111.4811,5.2636 165.8379,16.7696 91.2403,19.3133 173.2424,76.4275 265.8964,87.0586 77.885,8.9365 160.2018,5.0061 234.2793,-20.6543 91.0318,-31.5334 160.7374,-70.6443 241.9102,-158.1446 -179.005,89.4193 -239.3938,83.3976 -361.4883,70.545 -120.2691,-12.6604 -216.0843,-114.438 -333.8086,-142.1133 -91.7248,-21.5633 -169.4553,-25.8191 -236.4883,-14.0391 z" />
  </g>
</svg>
