<?xml version="1.0" encoding="UTF-8" standalone="no"?>
<!-- Created with Inkscape (http://www.inkscape.org/) -->

<svg
   version="1.1"
   id="svg1"
   width="5333.3335"
   height="4266.6665"
   viewBox="0 0 5333.3335 4266.6665"
   xmlns="http://www.w3.org/2000/svg"
   xmlns:svg="http://www.w3.org/2000/svg">
  <defs
     id="defs1" />
  <path
     id="path1"
     style="display:inline;fill:#0e93c7;fill-opacity:1;stroke:#800000;stroke-opacity:0.5"
     d="m 2977.1523,277.79883 -299.6992,198.17773 36.9883,46.875 -396.7246,526.55864 c -85.2727,113.1795 -55.9813,281.6449 108.9078,519.9103 l -341.8238,453.7127 h 156.0605 l 285.3262,-378.6973 c 274.9254,93.0738 445.0838,74.4941 529.332,-37.33 l 397.543,-527.6661 55.2891,22.6309 107.7968,-342.74804 -299.6992,198.17968 36.9844,46.87696 -363.8457,482.9316 c -62.8763,83.4556 -221.6984,79.1442 -338.4082,-8.7754 l 607.3144,-806.09761 55.3633,22.66602 107.6973,-342.75977 -299.5977,198.19336 36.9864,46.875 -607.3547,805.7275 c -116.4457,-87.7372 -164.2403,-238.7241 -101.3446,-322.2041 l 363.8379,-482.91402 55.2735,22.62304 z m 888.1446,1561.62107 -221.3067,64.7344 -35.4257,186.8574 -171.584,-0.01 c -107.5172,-0.01 -214.9443,70.5408 -239.125,197.996 l -35.2246,185.6641 c -18.6982,98.557 63.1397,198.0351 163.8984,197.9961 l 379.8262,-0.1465 z m -879.4649,7.5371 -33.3984,176.0664 h 206.6094 l 33.3984,-176.0664 z m 160.3164,244.0371 -206.6132,0.022 -110.3243,581.6465 h 206.6133 z m -2406.36324,0.014 v 0.01 l -377.42774,0.01 -157.97851,832.8926 218.56054,-64.3261 35.45899,-186.9278 h 171.05273 c 112.55399,0 212.20403,-67.0259 237.0586,-198 L 901.74219,2289 c 16.08677,-84.7711 -61.96352,-197.9948 -161.95703,-197.9922 z m 4197.55464,0 -371.3828,0.01 -110.7168,581.6621 201.6973,-0.024 83.2871,-439.0605 h 86.0801 c 52.4262,0 78.2591,31.3673 73.7012,55.3965 l -72.7735,383.664 202.9961,0.01 L 5103,2288.998 c 15.5999,-82.2466 -62.5296,-197.993 -165.6602,-197.9902 z m -2730.7753,0.01 -346.5879,0.01 c -91.7845,0 -187.555,47.5485 -205.9805,143.0684 l -10.709,55.5156 c -32.7509,169.7841 274.6031,147.724 310.8438,185.0469 26.9243,27.7283 -33.6567,55.3182 -94.3047,55.3438 h -222.6719 l -66.5215,142.6582 h 345.9414 c 102.5453,0 186.9425,-38.573 206.7207,-142.6622 l 10.5098,-55.3125 c 35.5119,-186.8934 -268.0662,-138.3266 -311.3828,-185.1757 -25.9969,-28.1169 39.9645,-55.2954 94.0215,-55.416 l 223.6367,-0.4981 z m 376.7988,0 c -151.1065,0 -299.0852,54.4589 -326.334,197.9785 l -35.25,185.6641 c -14.6253,77.0323 60.0768,198.0019 161.6113,198.0019 h 295.0371 l 66.3106,-142.6738 -245.6797,0.018 c -51.1263,0 -83.0365,-32.533 -78.7148,-55.3418 l 7.0605,-37.2637 h 360.7519 l 28.1426,-148.3984 c 17.3446,-91.4549 -81.829,-197.9844 -232.9355,-197.9844 z m 1608.0058,0 c -176.1752,0.028 -295.3127,56.443 -322.1777,197.9726 l -35.2344,185.6211 c -14.5697,76.7555 63.8877,198.0547 247.0918,198.0547 183.2041,-10e-5 294.4253,-54.3705 321.6543,-198.0254 l 35.1953,-185.6836 c 15.5231,-81.8969 -70.3541,-197.9674 -246.5293,-197.9394 z M 1309.8262,2091.5 c -176.1752,0.028 -296.3981,62.1643 -322.17776,197.9746 l -35.23438,185.6192 c -15.59304,82.146 63.88774,198.0546 247.09184,198.0546 183.2041,0 293.8587,-51.3813 321.6543,-198.0254 l 35.1953,-185.6835 c 14.5486,-76.7554 -70.3541,-197.9677 -246.5293,-197.9395 z m 2271.9629,142.084 -56.502,296.5058 h -85.9726 c -57.5851,0 -79.1394,-33.223 -74.9239,-55.4414 L 3399.6133,2289 c 8.3356,-43.9349 46.9637,-55.4006 96.1992,-55.4062 z m -3040.10746,0.01 85.28906,0.012 c 44.67771,0.01 79.68937,31.9691 75.24805,55.3906 l -35.20703,185.666 c -6.92303,36.5089 -48.07206,55.3263 -96.26758,55.332 l -85.28711,0.01 z m 2013.59956,0 c 51.8666,0 82.4807,35.1186 78.6211,55.4082 l -8.9941,47.2812 -178.4277,-0.01 9.1347,-47.2714 c 7.1733,-37.1211 47.7995,-55.4082 99.666,-55.4082 z m 1609.0547,0 c 49.3322,0 79.5304,34.756 75.6211,55.4062 l -35.1465,185.6484 c -7.9928,42.2193 -40.226,55.3946 -96.6972,55.3946 -56.4712,0 -80.6903,-32.7391 -76.3985,-55.3828 L 4066.9043,2289 c 7.9497,-41.9429 48.0994,-55.4062 97.4316,-55.4062 z m -2881.5429,0.4902 c 48.8322,0 79.0136,37.4866 75.6211,55.4062 l -35.1465,185.6485 c -7.3573,38.8621 -43.8578,54.8476 -96.6973,54.8476 -52.8395,0 -80.3641,-33.9127 -76.3984,-54.8359 l 35.1894,-185.6602 c 6.7889,-35.8186 48.5995,-55.4062 97.4317,-55.4062 z m 260.8672,507.539 -587.91411,780.336 c -118.918,68.852 -179.14133,148.6856 -176.49023,337.4472 181.9527,-49.6759 242.16734,-129.5234 275.58394,-262.7851 l 644.1543,-854.9844 z m 898.62,139.158 c -130.3537,5.4362 -259.8868,36.1297 -383.6984,77.2676 -118.7552,39.4578 -212.0209,77.4042 -339.2009,160.8733 83.4876,-32.725 293.4656,-94.1644 445.5313,-112.6206 130.4703,-15.8352 263.713,-12.6715 394.2762,2.3787 141.5848,16.3206 276.707,69.2836 416.9327,94.7661 73.6387,13.382 147.6251,29.2414 222.4601,30.4492 78.6015,1.2686 158.8984,-3.116 234.5671,-24.4247 105.4764,-29.7027 199.2581,-85.8248 296.6869,-141.5787 -136.075,42.877 -194.8402,55.836 -295.1575,60.2351 -95.0493,4.1681 -189.6572,-17.1993 -283.58,-32.3731 -117.7127,-19.0173 -232.4075,-54.2904 -350.1041,-73.4073 -118.8141,-19.2984 -238.4468,-46.5811 -358.7134,-41.5656 z m 1415.8031,202.1312 c -118.6825,23.1815 -217.2804,109.7504 -333.8192,142.0246 -101.6203,28.1427 -207.8834,42.6341 -313.3247,43.5417 -85.2489,0.7338 -169.9338,-16.0307 -253.8902,-30.8372 -138.1716,-24.3678 -270.6964,-78.4693 -409.9937,-95.2459 -118.0221,-14.2143 -238.5361,-17.9369 -356.6014,-4.0863 -144.5666,16.9596 -302.7656,61.8017 -423.6318,105.9253 -104.3886,38.1082 -164.9806,72.8171 -242.8731,127.8008 149.5727,-57.8908 271.1135,-91.3238 411.7057,-113.8552 99.4851,-15.9435 201.2476,-18.6892 301.9154,-14.5081 115.6878,4.8049 230.9772,22.0314 344.3848,45.3867 117.6003,24.2188 228.7143,75.3612 346.6537,97.8708 99.1667,18.9266 200.395,34.2083 301.2955,30.8421 104.7817,-3.4957 209.1817,-24.2438 310.0547,-52.8106 148.6891,-42.1081 275.5046,-168.9984 429.9797,-173.3529 119.845,-3.3783 222.326,96.0556 340.6339,115.485 67.1725,11.0316 138.4421,17.2669 204.2168,-0.2695 102.1045,-27.2224 182.6577,-69.958 275.1442,-157.4583 -145.0639,75.2772 -259.6925,84.4589 -391.4467,69.9592 -114.0009,-12.546 -205.173,-109.2513 -317.431,-132.7407 -72.7585,-15.2243 -150.017,-17.9215 -222.9726,-3.6715 z" />
</svg>
